<svg xmlns="http://www.w3.org/2000/svg" width="342.759" height="391.903" viewBox="0 0 342.759 391.903">
  <g id="Group_1" data-name="Group 1" transform="translate(-1232.406 -9062)">
    <path id="Icon_map-book-store" data-name="Icon map-book-store" d="M151.847,148.1V16.878c0-8.491-8.177-15.438-18.171-15.438H24.651C14.657,1.44,6.48,8.387,6.48,16.878V163.54c0,8.491,8.177,15.438,18.171,15.438H133.677c8.44,0,18.171,0,18.171-7.719V167.4H29.194c-5,0-9.085-3.474-9.085-7.719V148.1ZM29.194,32.316c0-2.123,2.044-3.86,4.543-3.86h90.855c2.5,0,4.543,1.737,4.543,3.86v7.719c0,2.123-2.044,3.86-4.543,3.86H33.736c-2.5,0-4.543-1.737-4.543-3.86V32.316Zm0,30.876c0-2.123,2.044-3.86,4.543-3.86h90.855c2.5,0,4.543,1.737,4.543,3.86v7.719c0,2.123-2.044,3.86-4.543,3.86H33.736c-2.5,0-4.543-1.737-4.543-3.86V63.192Z" transform="translate(1227.138 9343.822) rotate(-50)"/>
    <path id="Icon_awesome-book-open" data-name="Icon awesome-book-open" d="M126.164,151.321c-12.751-1.051-38.094-4.875-53.74-18.779a6.024,6.024,0,0,1-1.692-4.449V5.175c0-3.9,2.939-6.368,5.417-4.557,16.1,11.762,39.377,14.972,50.887,15.85,3.93.3,6.985,4.875,6.985,10.357V140.95c0,5.983-3.572,10.722-7.858,10.371ZM61.6,132.542c-15.643,13.9-40.987,17.725-53.738,18.779C3.574,151.672,0,146.933,0,140.95V26.821c0-5.486,3.055-10.06,6.985-10.357C18.5,15.586,41.792,12.373,57.889.6c2.471-1.807,5.4.655,5.4,4.547v123A5.871,5.871,0,0,1,61.6,132.542Z" transform="matrix(-0.951, -0.309, 0.309, -0.951, 1528.399, 9293.532)" fill="#7420d4"/>
    <path id="Icon_awesome-pencil-alt" data-name="Icon awesome-pencil-alt" d="M2.728,25.8l8.914,8.374a2.43,2.43,0,0,0,3.287,0L36.394,14.015a2.09,2.09,0,0,0,0-3.088L27.479,2.553a9.732,9.732,0,0,0-13.13,0L2.728,13.47A8.338,8.338,0,0,0,2.728,25.8ZM44.051,18.12l50.779,47.7,4.1,22.07a4.511,4.511,0,0,1-5.376,5.05L70.059,89.072l-50.779-47.7a2.09,2.09,0,0,1,0-3.088L40.744,18.12a2.455,2.455,0,0,1,3.307,0ZM75.009,61.734a2.426,2.426,0,0,0,0-3.6L45.231,30.163a2.82,2.82,0,0,0-3.829,0,2.426,2.426,0,0,0,0,3.6L71.181,61.734a2.82,2.82,0,0,0,3.829,0ZM81.99,77.01H72.708V83.6L85.18,85.657l6.014-5.649L89.009,68.291H81.99Z" transform="translate(1273.998 9061.995)" fill="#7420d4"/>
  </g>
</svg>
