<svg xmlns="http://www.w3.org/2000/svg" width="369.515" height="346.646" viewBox="0 0 369.515 346.646">
  <path id="Icon_ionic-ios-paper-plane" data-name="Icon ionic-ios-paper-plane" d="M314.1,4.065,6.669,155.36a5.625,5.625,0,0,0,.461,10.422l52.443,17.976a12.011,12.011,0,0,1,6.921,5.876l40.755,76.312c.769,3.357,7.613,4.267,7.69.839l-6.229-63.092a21.413,21.413,0,0,1,5.613-12.73L273.728,48.9a4.109,4.109,0,0,1,3.46-.909,3.232,3.232,0,0,1,2,5.316l-137.413,152.9a26.527,26.527,0,0,0-5.383,12.59l-8.228,54.489c.692,4.756,4.768,6.575,8.074,2.308l29.6-31.616a6.6,6.6,0,0,1,8.689-1.329l76.281,50.572c3.614,2.448,8.766.63,9.689-3.427L323.1,10.36C324.249,5.6,318.789,1.757,314.1,4.065Z" transform="translate(52.847 -3.958) rotate(11)" fill="#7420d4"/>
</svg>
