<svg id="telephone" xmlns="http://www.w3.org/2000/svg" width="30" height="30" viewBox="0 0 30 30">
  <rect id="Area_ICON:feather_phone_SIZE:LARGE_STYLE:STYLE1_" data-name="Area [ICON:feather/phone][SIZE:LARGE][STYLE:STYLE1]" width="30" height="30" fill="#fcfcfc" opacity="0"/>
  <g id="Icon" transform="translate(2.112 2)">
    <path id="Path" d="M28,21.412v3.9a2.6,2.6,0,0,1-2.838,2.6,25.765,25.765,0,0,1-11.233-3.994,25.372,25.372,0,0,1-7.81-7.806,25.738,25.738,0,0,1-4-11.28A2.6,2.6,0,0,1,4.713,2H8.618a2.6,2.6,0,0,1,2.6,2.238,16.69,16.69,0,0,0,.911,3.656,2.6,2.6,0,0,1-.586,2.745L9.893,12.292A20.822,20.822,0,0,0,17.7,20.1l1.653-1.652A2.6,2.6,0,0,1,22.1,17.86a16.711,16.711,0,0,0,3.658.911A2.6,2.6,0,0,1,28,21.412Z" transform="translate(-2.112 -2)" fill="rgba(0,0,0,0)" stroke="#3d3d3d" stroke-linecap="round" stroke-linejoin="round" stroke-width="2"/>
  </g>
</svg>
